<svg xmlns="http://www.w3.org/2000/svg" enable-background="new 0 0 24 24" height="24" viewBox="0 0 24 24" width="24"><rect fill="none" height="24" width="24"/><path d="M12,4c2.76,0,5,2.24,5,5c0,1.32-0.38,2.59-1.12,3.79c-0.43,0.7-0.95,1.37-1.49,2.08c-0.56,0.72-1.14,1.47-1.66,2.3 c-0.28,0.45-0.52,0.88-0.73,1.29c-0.21-0.41-0.45-0.84-0.73-1.29c-0.52-0.83-1.1-1.58-1.66-2.31c-0.55-0.71-1.06-1.38-1.49-2.08 C7.38,11.59,7,10.32,7,9C7,6.24,9.24,4,12,4 M12,2L12,2C8.13,2,5,5.13,5,9c0,1.74,0.5,3.37,1.41,4.84c0.95,1.54,2.2,2.86,3.16,4.4 c0.47,0.75,0.81,1.45,1.17,2.26C11,21.05,11.21,22,12,22h0c0.79,0,1-0.95,1.25-1.5c0.37-0.81,0.7-1.51,1.17-2.26 c0.96-1.53,2.21-2.85,3.16-4.4C18.5,12.37,19,10.74,19,9C19,5.13,15.87,2,12,2L12,2z M12,11.75c-1.38,0-2.5-1.12-2.5-2.5 s1.12-2.5,2.5-2.5s2.5,1.12,2.5,2.5S13.38,11.75,12,11.75z"/></svg>